# Blender v2.79 (sub 0) OBJ File: ''
# www.blender.org
mtllib cubeplane.mtl
o Plane
v -1.000000 0.000000 1.000000
v 1.000000 0.000000 1.000000
v -1.000000 0.000000 -1.000000
v 1.000000 0.000000 -1.000000
v 0.196590 0.298926 -0.196590
v 0.196590 0.298926 0.196590
v -0.196590 0.298926 0.196590
v -0.196590 0.298926 -0.196590
v 0.196590 0.692106 -0.196590
v 0.196590 0.692106 0.196590
v -0.196590 0.692106 0.196590
v -0.196590 0.692106 -0.196590
vn 0.0000 1.0000 0.0000
vn 0.0000 -1.0000 -0.0000
vn 1.0000 -0.0000 0.0000
vn -0.0000 -0.0000 1.0000
vn -1.0000 -0.0000 -0.0000
vn 0.0000 0.0000 -1.0000
usemtl Material
s off
f 2//1 3//1 1//1
f 5//2 7//2 8//2
f 12//1 10//1 9//1
f 9//3 6//3 5//3
f 10//4 7//4 6//4
f 7//5 12//5 8//5
f 5//6 12//6 9//6
f 2//1 4//1 3//1
f 5//2 6//2 7//2
f 12//1 11//1 10//1
f 9//3 10//3 6//3
f 10//4 11//4 7//4
f 7//5 11//5 12//5
f 5//6 8//6 12//6
